<svg width="356" height="335" fill="none" xmlns="http://www.w3.org/2000/svg"><g filter="url(#filter0_bd_137_65)" shape-rendering="crispEdges"><path d="M51.46 59.033c27.432-28.044 61.27-44 100.046-49.603 43.057-6.224 83.709.963 121.206 23.112 32.993 19.494 56.55 47.024 68.195 83.88 3.132 9.932 4.947 20.018 5.361 30.421.069 1.72.467 3.443.701 5.165l-.04 5.24c-.529 4.746-.976 9.492-1.588 14.237-3.486 25.85-13.366 49.113-30.7 68.471-8.377 9.354-9.604 19.253-8.372 30.399 1.385 12.54 6.564 23.634 15.045 33.034.652.742 1.305 1.484 1.874 2.307 2.689 3.296 3.237 6.903 1.317 10.655-2.003 3.834-5.468 5.282-9.578 5.087-19.731-.723-38.197-5.695-54.892-16.385-5.728-3.729-11.039-8.191-16.435-12.408-1.716-1.405-3.193-1.826-5.337-1.105-18.056 6.086-36.749 9.384-55.744 9.24-59.782-.454-109.951-21.552-146.258-70.388-15.14-20.423-23.435-43.661-24.804-69.138-2.08-40.06 12.32-73.852 40.002-102.221z" fill="#00A6E3"/><path d="M50.03 57.634l-.002.002C21.998 86.362 7.347 120.685 9.46 161.357v.004c1.39 25.865 9.817 49.48 25.195 70.222l.001.002c36.739 49.417 87.542 70.737 147.848 71.195 19.238.146 38.151-3.194 56.396-9.344.819-.276 1.344-.281 1.755-.189.434.097.952.351 1.678.945l.018.015.017.014c1.193.932 2.392 1.885 3.6 2.845 4.176 3.319 8.458 6.722 12.976 9.663l.007.004.006.004c17.037 10.91 35.858 15.963 55.885 16.699 4.698.22 8.995-1.486 11.436-6.159l.004-.007.004-.008c1.12-2.189 1.564-4.434 1.272-6.669-.288-2.199-1.27-4.242-2.77-6.1-.625-.893-1.323-1.687-1.941-2.39l-.031-.035-.008-.009-.009-.01c-8.215-9.105-13.206-19.812-14.542-31.913-1.196-10.822.012-20.067 7.874-28.845v-.001c17.63-19.688 27.659-43.335 31.192-69.538l.002-.012c.41-3.185.749-6.389 1.085-9.567.167-1.576.333-3.146.507-4.703l.011-.103.001-.104v-.03l.001-.01v-.121l.001-.01v-.122l.001-.01v-.121l.001-.011v-.121l.001-.011v-.122l.001-.01v-.122l.001-.011v-.122l.001-.01v-.113l.001-.01v-.123l.001-.01v-.123l.001-.01v-.124l.001-.01v-.123l.001-.01v-.124l.001-.01v-.113l.001-.011v-.123l.001-.011v-.123l.001-.011v-.123l.001-.011v-.123l.001-.011v-.113l.001-.01v-.124l.001-.011v-.123l.001-.011v-.123l.001-.011v-.113l.001-.01v-.124l.001-.01v-.124l.001-.01v-.124l.001-.01v-.124l.001-.01v-.113l.001-.01v-.123l.001-.011v-.123l.001-.01v-.123l.001-.01v-.123l.001-.01v-.123l.001-.01v-.122l.001-.011v-.122l.001-.01v-.122l.001-.01v-.122l.001-.01v-.121l.001-.01v-.122l.001-.01v-.06l.001-.143-.019-.141c-.097-.716-.205-1.354-.306-1.952-.179-1.059-.337-1.995-.378-3.023L50.03 57.634zm0 0C77.798 29.248 112.05 13.11 151.22 7.451c43.48-6.286 84.596.974 122.509 23.369h0m-223.7 26.814l223.7-26.814m0 0c33.374 19.72 57.277 47.627 69.085 84.999v.001m-69.085-85l69.085 85m0 0c3.183 10.095 5.031 20.356 5.453 30.943l-5.453-30.943z" stroke="url(#paint0_linear_137_65)" stroke-width="4"/></g><defs><linearGradient id="paint0_linear_137_65" x1="262" y1="12" x2="82.709" y2="305.738" gradientUnits="userSpaceOnUse"><stop offset=".015" stop-color="#D5FFFF" stop-opacity=".94"/><stop offset=".976" stop-color="#08749B" stop-opacity=".89"/></linearGradient><filter id="filter0_bd_137_65" x=".259" y="-.717" width="355.712" height="335.171" filterUnits="userSpaceOnUse" color-interpolation-filters="sRGB"><feFlood flood-opacity="0" result="BackgroundImageFix"/><feGaussianBlur in="BackgroundImage" stdDeviation="2"/><feComposite in2="SourceAlpha" operator="in" result="effect1_backgroundBlur_137_65"/><feColorMatrix in="SourceAlpha" values="0 0 0 0 0 0 0 0 0 0 0 0 0 0 0 0 0 0 127 0" result="hardAlpha"/><feOffset dx="-1" dy="3"/><feGaussianBlur stdDeviation="3"/><feComposite in2="hardAlpha" operator="out"/><feColorMatrix values="0 0 0 0 0.0104333 0 0 0 0 0.384287 0 0 0 0 0.521667 0 0 0 0.75 0"/><feBlend in2="effect1_backgroundBlur_137_65" result="effect2_dropShadow_137_65"/><feBlend in="SourceGraphic" in2="effect2_dropShadow_137_65" result="shape"/></filter></defs></svg>