<svg width="356" height="335" viewBox="0 0 356 335" fill="none" xmlns="http://www.w3.org/2000/svg">
<g filter="url(#filter0_bd_137_65)">
<path d="M51.4593 59.0327C78.8923 30.9893 112.73 15.0321 151.506 9.43037C194.563 3.20598 235.215 10.3931 272.712 32.5419C305.705 52.036 329.262 79.5656 340.907 116.422C344.039 126.354 345.854 136.44 346.268 146.843C346.337 148.563 346.735 150.286 346.969 152.008C346.956 153.727 346.942 155.529 346.929 157.248C346.4 161.994 345.953 166.74 345.341 171.485C341.855 197.335 331.975 220.598 314.641 239.956C306.264 249.31 305.037 259.209 306.269 270.355C307.654 282.895 312.833 293.989 321.314 303.389C321.966 304.131 322.619 304.873 323.188 305.696C325.877 308.992 326.425 312.599 324.505 316.351C322.502 320.185 319.037 321.633 314.927 321.438C295.196 320.715 276.73 315.743 260.035 305.053C254.307 301.324 248.996 296.862 243.6 292.645C241.884 291.24 240.407 290.819 238.263 291.54C220.207 297.626 201.514 300.924 182.519 300.78C122.737 300.326 72.568 279.228 36.2612 230.392C21.1202 209.969 12.8262 186.731 11.457 161.254C9.37614 121.194 23.7771 87.4018 51.4593 59.0327Z" fill="#00A6E3" shape-rendering="crispEdges"/>
<path d="M50.0296 57.6342L50.0279 57.6359C21.9973 86.362 7.34696 120.685 9.45974 161.357L9.45993 161.361C10.8499 187.226 19.277 210.841 34.6546 231.583L34.6562 231.585C71.395 281.002 122.198 302.322 182.504 302.78C201.742 302.926 220.655 299.586 238.9 293.436C239.719 293.16 240.244 293.155 240.655 293.247C241.089 293.344 241.607 293.598 242.333 294.192L242.351 294.207L242.368 294.221C243.561 295.153 244.76 296.106 245.968 297.066C250.144 300.385 254.426 303.788 258.944 306.729L258.951 306.733L258.957 306.737C275.994 317.647 294.815 322.7 314.842 323.436C319.54 323.656 323.837 321.95 326.278 317.277L326.282 317.27L326.286 317.262C327.406 315.073 327.85 312.828 327.558 310.593C327.27 308.394 326.288 306.351 324.788 304.493C324.163 303.6 323.465 302.806 322.847 302.103L322.816 302.068L322.808 302.059L322.799 302.049C314.584 292.944 309.593 282.237 308.257 270.136C307.061 259.314 308.269 250.069 316.131 241.291L316.131 241.29C333.761 221.602 343.79 197.955 347.323 171.752L347.325 171.74C347.735 168.555 348.074 165.351 348.41 162.173C348.577 160.597 348.743 159.027 348.917 157.47L348.928 157.367L348.929 157.263L348.929 157.253L348.929 157.243L348.929 157.233L348.93 157.223L348.93 157.213L348.93 157.203L348.93 157.193L348.93 157.183L348.93 157.173L348.93 157.162L348.93 157.152L348.93 157.142L348.93 157.132L348.93 157.122L348.93 157.112L348.93 157.102L348.931 157.092L348.931 157.082L348.931 157.072L348.931 157.061L348.931 157.051L348.931 157.041L348.931 157.031L348.931 157.021L348.931 157.011L348.931 157.001L348.931 156.991L348.931 156.98L348.931 156.97L348.932 156.96L348.932 156.95L348.932 156.94L348.932 156.93L348.932 156.92L348.932 156.91L348.932 156.899L348.932 156.889L348.932 156.879L348.932 156.869L348.932 156.859L348.932 156.849L348.932 156.839L348.933 156.828L348.933 156.818L348.933 156.808L348.933 156.798L348.933 156.788L348.933 156.778L348.933 156.767L348.933 156.757L348.933 156.747L348.933 156.737L348.933 156.727L348.933 156.717L348.933 156.707L348.934 156.696L348.934 156.686L348.934 156.676L348.934 156.666L348.934 156.656L348.934 156.645L348.934 156.635L348.934 156.625L348.934 156.615L348.934 156.605L348.934 156.595L348.934 156.584L348.934 156.574L348.935 156.564L348.935 156.554L348.935 156.544L348.935 156.533L348.935 156.523L348.935 156.513L348.935 156.503L348.935 156.493L348.935 156.482L348.935 156.472L348.935 156.462L348.935 156.452L348.935 156.442L348.936 156.431L348.936 156.421L348.936 156.411L348.936 156.401L348.936 156.391L348.936 156.38L348.936 156.37L348.936 156.36L348.936 156.35L348.936 156.34L348.936 156.329L348.936 156.319L348.936 156.309L348.937 156.299L348.937 156.288L348.937 156.278L348.937 156.268L348.937 156.258L348.937 156.248L348.937 156.237L348.937 156.227L348.937 156.217L348.937 156.207L348.937 156.196L348.937 156.186L348.938 156.176L348.938 156.166L348.938 156.156L348.938 156.145L348.938 156.135L348.938 156.125L348.938 156.115L348.938 156.104L348.938 156.094L348.938 156.084L348.938 156.074L348.938 156.063L348.938 156.053L348.939 156.043L348.939 156.033L348.939 156.022L348.939 156.012L348.939 156.002L348.939 155.992L348.939 155.981L348.939 155.971L348.939 155.961L348.939 155.951L348.939 155.94L348.939 155.93L348.939 155.92L348.94 155.91L348.94 155.899L348.94 155.889L348.94 155.879L348.94 155.868L348.94 155.858L348.94 155.848L348.94 155.838L348.94 155.827L348.94 155.817L348.94 155.807L348.94 155.797L348.94 155.786L348.941 155.776L348.941 155.766L348.941 155.756L348.941 155.745L348.941 155.735L348.941 155.725L348.941 155.714L348.941 155.704L348.941 155.694L348.941 155.684L348.941 155.673L348.941 155.663L348.941 155.653L348.942 155.643L348.942 155.632L348.942 155.622L348.942 155.612L348.942 155.601L348.942 155.591L348.942 155.581L348.942 155.571L348.942 155.56L348.942 155.55L348.942 155.54L348.942 155.529L348.942 155.519L348.943 155.509L348.943 155.498L348.943 155.488L348.943 155.478L348.943 155.468L348.943 155.457L348.943 155.447L348.943 155.437L348.943 155.426L348.943 155.416L348.943 155.406L348.943 155.396L348.944 155.385L348.944 155.375L348.944 155.365L348.944 155.354L348.944 155.344L348.944 155.334L348.944 155.323L348.944 155.313L348.944 155.303L348.944 155.293L348.944 155.282L348.944 155.272L348.944 155.262L348.945 155.251L348.945 155.241L348.945 155.231L348.945 155.22L348.945 155.21L348.945 155.2L348.945 155.19L348.945 155.179L348.945 155.169L348.945 155.159L348.945 155.148L348.945 155.138L348.945 155.128L348.946 155.117L348.946 155.107L348.946 155.097L348.946 155.086L348.946 155.076L348.946 155.066L348.946 155.056L348.946 155.045L348.946 155.035L348.946 155.025L348.946 155.014L348.946 155.004L348.946 154.994L348.947 154.983L348.947 154.973L348.947 154.963L348.947 154.952L348.947 154.942L348.947 154.932L348.947 154.921L348.947 154.911L348.947 154.901L348.947 154.891L348.947 154.88L348.947 154.87L348.947 154.86L348.948 154.849L348.948 154.839L348.948 154.829L348.948 154.818L348.948 154.808L348.948 154.798L348.948 154.787L348.948 154.777L348.948 154.767L348.948 154.756L348.948 154.746L348.948 154.736L348.949 154.726L348.949 154.715L348.949 154.705L348.949 154.695L348.949 154.684L348.949 154.674L348.949 154.664L348.949 154.653L348.949 154.643L348.949 154.633L348.949 154.622L348.949 154.612L348.949 154.602L348.95 154.591L348.95 154.581L348.95 154.571L348.95 154.56L348.95 154.55L348.95 154.54L348.95 154.53L348.95 154.519L348.95 154.509L348.95 154.499L348.95 154.488L348.95 154.478L348.95 154.468L348.951 154.457L348.951 154.447L348.951 154.437L348.951 154.426L348.951 154.416L348.951 154.406L348.951 154.395L348.951 154.385L348.951 154.375L348.951 154.365L348.951 154.354L348.951 154.344L348.951 154.334L348.952 154.323L348.952 154.313L348.952 154.303L348.952 154.292L348.952 154.282L348.952 154.272L348.952 154.261L348.952 154.251L348.952 154.241L348.952 154.23L348.952 154.22L348.952 154.21L348.953 154.2L348.953 154.189L348.953 154.179L348.953 154.169L348.953 154.158L348.953 154.148L348.953 154.138L348.953 154.127L348.953 154.117L348.953 154.107L348.953 154.096L348.953 154.086L348.953 154.076L348.954 154.066L348.954 154.055L348.954 154.045L348.954 154.035L348.954 154.024L348.954 154.014L348.954 154.004L348.954 153.993L348.954 153.983L348.954 153.973L348.954 153.963L348.954 153.952L348.954 153.942L348.955 153.932L348.955 153.921L348.955 153.911L348.955 153.901L348.955 153.89L348.955 153.88L348.955 153.87L348.955 153.86L348.955 153.849L348.955 153.839L348.955 153.829L348.955 153.818L348.955 153.808L348.956 153.798L348.956 153.788L348.956 153.777L348.956 153.767L348.956 153.757L348.956 153.746L348.956 153.736L348.956 153.726L348.956 153.716L348.956 153.705L348.956 153.695L348.956 153.685L348.956 153.674L348.957 153.664L348.957 153.654L348.957 153.644L348.957 153.633L348.957 153.623L348.957 153.613L348.957 153.602L348.957 153.592L348.957 153.582L348.957 153.572L348.957 153.561L348.957 153.551L348.958 153.541L348.958 153.53L348.958 153.52L348.958 153.51L348.958 153.5L348.958 153.489L348.958 153.479L348.958 153.469L348.958 153.459L348.958 153.448L348.958 153.438L348.958 153.428L348.958 153.418L348.959 153.407L348.959 153.397L348.959 153.387L348.959 153.376L348.959 153.366L348.959 153.356L348.959 153.346L348.959 153.335L348.959 153.325L348.959 153.315L348.959 153.305L348.959 153.294L348.959 153.284L348.96 153.274L348.96 153.264L348.96 153.253L348.96 153.243L348.96 153.233L348.96 153.223L348.96 153.212L348.96 153.202L348.96 153.192L348.96 153.182L348.96 153.171L348.96 153.161L348.96 153.151L348.961 153.141L348.961 153.131L348.961 153.12L348.961 153.11L348.961 153.1L348.961 153.09L348.961 153.079L348.961 153.069L348.961 153.059L348.961 153.049L348.961 153.038L348.961 153.028L348.961 153.018L348.962 153.008L348.962 152.998L348.962 152.987L348.962 152.977L348.962 152.967L348.962 152.957L348.962 152.946L348.962 152.936L348.962 152.926L348.962 152.916L348.962 152.906L348.962 152.895L348.962 152.885L348.963 152.875L348.963 152.865L348.963 152.855L348.963 152.844L348.963 152.834L348.963 152.824L348.963 152.814L348.963 152.804L348.963 152.793L348.963 152.783L348.963 152.773L348.963 152.763L348.963 152.753L348.964 152.742L348.964 152.732L348.964 152.722L348.964 152.712L348.964 152.702L348.964 152.691L348.964 152.681L348.964 152.671L348.964 152.661L348.964 152.651L348.964 152.641L348.964 152.63L348.964 152.62L348.965 152.61L348.965 152.6L348.965 152.59L348.965 152.58L348.965 152.569L348.965 152.559L348.965 152.549L348.965 152.539L348.965 152.529L348.965 152.519L348.965 152.508L348.965 152.498L348.965 152.488L348.966 152.478L348.966 152.468L348.966 152.458L348.966 152.447L348.966 152.437L348.966 152.427L348.966 152.417L348.966 152.407L348.966 152.397L348.966 152.387L348.966 152.376L348.966 152.366L348.966 152.356L348.967 152.346L348.967 152.336L348.967 152.326L348.967 152.316L348.967 152.306L348.967 152.295L348.967 152.285L348.967 152.275L348.967 152.265L348.967 152.255L348.967 152.245L348.967 152.235L348.967 152.225L348.968 152.215L348.968 152.204L348.968 152.194L348.968 152.184L348.968 152.174L348.968 152.164L348.968 152.154L348.968 152.144L348.968 152.134L348.968 152.124L348.968 152.113L348.968 152.103L348.968 152.093L348.969 152.083L348.969 152.073L348.969 152.063L348.969 152.053L348.969 152.043L348.969 152.033L348.969 152.023L348.97 151.88L348.951 151.739C348.854 151.023 348.746 150.385 348.645 149.787C348.466 148.728 348.308 147.792 348.267 146.764L50.0296 57.6342ZM50.0296 57.6342C77.7979 29.2481 112.051 13.1095 151.22 7.45092C194.7 1.16545 235.816 8.42521 273.729 30.8198L273.729 30.82M50.0296 57.6342L273.729 30.82M273.729 30.82C307.103 50.5391 331.006 78.4468 342.814 115.819L342.814 115.82M273.729 30.82L342.814 115.82M342.814 115.82C345.997 125.915 347.845 136.176 348.267 146.763L342.814 115.82Z" stroke="url(#paint0_linear_137_65)" stroke-width="4" shape-rendering="crispEdges"/>
</g>
<defs>
<filter id="filter0_bd_137_65" x="0.259277" y="-0.717041" width="355.712" height="335.171" filterUnits="userSpaceOnUse" color-interpolation-filters="sRGB">
<feFlood flood-opacity="0" result="BackgroundImageFix"/>
<feGaussianBlur in="BackgroundImage" stdDeviation="2"/>
<feComposite in2="SourceAlpha" operator="in" result="effect1_backgroundBlur_137_65"/>
<feColorMatrix in="SourceAlpha" type="matrix" values="0 0 0 0 0 0 0 0 0 0 0 0 0 0 0 0 0 0 127 0" result="hardAlpha"/>
<feOffset dx="-1" dy="3"/>
<feGaussianBlur stdDeviation="3"/>
<feComposite in2="hardAlpha" operator="out"/>
<feColorMatrix type="matrix" values="0 0 0 0 0.0104333 0 0 0 0 0.384287 0 0 0 0 0.521667 0 0 0 0.75 0"/>
<feBlend mode="normal" in2="effect1_backgroundBlur_137_65" result="effect2_dropShadow_137_65"/>
<feBlend mode="normal" in="SourceGraphic" in2="effect2_dropShadow_137_65" result="shape"/>
</filter>
<linearGradient id="paint0_linear_137_65" x1="262" y1="12.0001" x2="82.7085" y2="305.738" gradientUnits="userSpaceOnUse">
<stop offset="0.0151812" stop-color="#D5FFFF" stop-opacity="0.94"/>
<stop offset="0.976489" stop-color="#08749B" stop-opacity="0.89"/>
</linearGradient>
</defs>
</svg>
